# xmcd
# Track frame offsets:
# 183
# 16400
# 31648
# 48050
# 58873
# 76613
# 91645
# 106725
# 123448
# 134938
# 151205
# 167410
#
# Disc length: 2488 seconds
# Revision: 1
# Processed by: cddbd v1.5.2PL0 Copyright (c) Steve Scherf et al.
# Submitted via: VisiTrax 2.11.2.271 - For more info visit www.synapsa.com
#
DISCID=8109b60c
DTITLE=Marc and The Margaritas - Marc and The Margaritas
DYEAR=1994
DGENRE=Pop
TTITLE0=No One Left Alive In '99
TTITLE1=Craving For You
TTITLE2=I Won't Miss You
TTITLE3=For A Moment
TTITLE4=My Hands Are Tied
TTITLE5=Island In New England
TTITLE6=Irresistible Charm
TTITLE7=Did You Ever Love?
TTITLE8=She Says
TTITLE9=Row With Me
TTITLE10=How Long Will It Take?
TTITLE11=Betrayed By Lies
EXTD=YEAR: 1994
EXTT0=
EXTT1=
EXTT2=
EXTT3=
EXTT4=
EXTT5=
EXTT6=
EXTT7=
EXTT8=
EXTT9=
EXTT10=
EXTT11=
PLAYORDER=
